<svg xmlns="http://www.w3.org/2000/svg" xmlns:xlink="http://www.w3.org/1999/xlink" width="40.0009765625" height="40.00048828125" viewBox="0 0 40.0009765625 40.00048828125" fill="none">
<path d="M32.001 6.00002L32.001 2.00002L1.00096 2.00002L1.00096 1.69277e-05L40.001 1.69277e-05L40.001 8.00002L40.001 8.00002L40.001 40L38.001 40L38.001 8.00002L34.001 8.00002L34.001 40L32.001 40L32.001 12L30.001 12L30.001 18L22.001 18L22.001 10L28.001 10L28.001 8.00002L1.00096 8.00002L1.00096 6.00002L32.001 6.00002ZM34.001 6.00002L38.001 6.00002L38.001 2.00002L34.001 2.00002L34.001 6.00002ZM30.001 8.00002L32.001 8.00002L32.001 10L30.001 10L30.001 8.00002ZM28.001 16L28.001 12L24.001 12L24.001 16L28.001 16Z" fill-rule="evenodd"  fill="#CFC7F8" >
</path>
</svg>
