<svg xmlns="http://www.w3.org/2000/svg" xmlns:xlink="http://www.w3.org/1999/xlink" width="40.0009765625" height="40.00048828125" viewBox="0 0 40.0009765625 40.00048828125" fill="none">
<path d="M32.001 34.0005L32.001 38.0005L1.00096 38.0005L1.00096 40.0005L40.001 40.0005L40.001 32.0005L40.001 32.0005L40.001 0.000511169L38.001 0.000511169L38.001 32.0005L34.001 32.0005L34.001 0.000511169L32.001 0.000511169L32.001 28.0005L30.001 28.0005L30.001 22.0005L22.001 22.0005L22.001 30.0005L28.001 30.0005L28.001 32.0005L1.00096 32.0005L1.00096 34.0005L32.001 34.0005ZM34.001 34.0005L38.001 34.0005L38.001 38.0005L34.001 38.0005L34.001 34.0005ZM30.001 32.0005L32.001 32.0005L32.001 30.0005L30.001 30.0005L30.001 32.0005ZM28.001 24.0005L28.001 28.0005L24.001 28.0005L24.001 24.0005L28.001 24.0005Z" fill-rule="evenodd"  fill="#CFC7F8" >
</path>
</svg>
