<svg xmlns="http://www.w3.org/2000/svg" xmlns:xlink="http://www.w3.org/1999/xlink" width="40.0009765625" height="40.00048828125" viewBox="0 0 40.0009765625 40.00048828125" fill="none">
<path d="M8.00004 6.00002L8.00004 2.00002L39 2.00002L39 1.69277e-05L4.4167e-05 1.69277e-05L4.4167e-05 8.00002L4.43459e-05 8.00002L4.43459e-05 40L2.00004 40L2.00004 8.00002L6.00004 8.00002L6.00004 40L8.00004 40L8.00004 12L10 12L10 18L18 18L18 10L12 10L12 8.00002L39 8.00002L39 6.00002L8.00004 6.00002ZM6.00004 6.00002L2.00004 6.00002L2.00004 2.00002L6.00004 2.00002L6.00004 6.00002ZM10 8.00002L8.00004 8.00002L8.00004 10L10 10L10 8.00002ZM12 16L12 12L16 12L16 16L12 16Z" fill-rule="evenodd"  fill="#CFC7F8" >
</path>
</svg>
