<svg xmlns="http://www.w3.org/2000/svg" xmlns:xlink="http://www.w3.org/1999/xlink" width="40.0009765625" height="40.00048828125" viewBox="0 0 40.0009765625 40.00048828125" fill="none">
<path d="M8.00004 34.0005L8.00004 38.0005L39 38.0005L39 40.0005L4.4167e-05 40.0005L4.4167e-05 32.0005L4.43459e-05 32.0005L4.43459e-05 0.000511169L2.00004 0.000511169L2.00004 32.0005L6.00004 32.0005L6.00004 0.000511169L8.00004 0.000511169L8.00004 28.0005L10 28.0005L10 22.0005L18 22.0005L18 30.0005L12 30.0005L12 32.0005L39 32.0005L39 34.0005L8.00004 34.0005ZM6.00004 34.0005L2.00004 34.0005L2.00004 38.0005L6.00004 38.0005L6.00004 34.0005ZM10 32.0005L8.00004 32.0005L8.00004 30.0005L10 30.0005L10 32.0005ZM12 24.0005L12 28.0005L16 28.0005L16 24.0005L12 24.0005Z" fill-rule="evenodd"  fill="#CFC7F8" >
</path>
</svg>
